<?xml version="1.0" standalone="no"?>
<!DOCTYPE svg PUBLIC "-//W3C//DTD SVG 20010904//EN"
 "http://www.w3.org/TR/2001/REC-SVG-20010904/DTD/svg10.dtd">
<svg version="1.0" xmlns="http://www.w3.org/2000/svg"
 width="186.000000pt" height="186.000000pt" viewBox="0 0 186.000000 186.000000"
 preserveAspectRatio="xMidYMid meet">
<metadata>
Created by potrace 1.14, written by Peter Selinger 2001-2017
</metadata>
<g transform="translate(0.000000,186.000000) scale(0.100000,-0.100000)"
fill="#000000" stroke="none">
<path d="M805 1808 c-33 -5 -86 -16 -119 -26 -56 -17 -59 -19 -78 -67 -29 -76
-58 -213 -58 -282 0 -117 43 -269 96 -340 13 -17 24 -36 24 -41 0 -10 143
-156 189 -192 31 -24 31 -25 7 -25 -13 0 -23 2 -21 5 2 3 -24 17 -58 30 -147
58 -268 175 -347 336 -28 55 -50 108 -50 117 0 24 -6 22 -60 -24 -38 -32 -58
-41 -91 -43 -24 -1 -44 -7 -46 -13 -4 -10 179 -202 222 -233 24 -18 107 -69
151 -93 29 -15 142 -58 189 -71 11 -3 -14 -3 -55 -1 -109 7 -311 62 -427 115
-24 11 -45 20 -47 20 -8 0 -110 64 -121 76 -5 6 -22 18 -38 27 -26 17 -27 17
-28 0 0 -10 -3 -30 -5 -44 -4 -22 2 -28 48 -49 49 -22 133 -82 168 -120 8 -9
33 -30 55 -46 22 -16 50 -39 62 -51 12 -13 33 -27 45 -32 29 -11 169 -39 228
-46 55 -6 192 -39 282 -67 103 -32 203 -132 192 -193 -13 -72 -42 -207 -46
-211 -11 -10 -160 -11 -163 0 -2 6 -6 37 -9 69 -10 120 -108 217 -218 217 -49
0 -88 -11 -114 -32 -73 -61 -105 -120 -112 -205 -5 -60 -5 -62 -35 -65 l-30
-3 50 -32 c83 -54 85 -53 64 8 -12 32 -17 68 -14 92 6 57 45 127 89 162 33 25
47 29 99 29 48 0 68 -5 93 -23 78 -55 107 -137 89 -248 -7 -44 -16 -61 -54
-98 -24 -25 -43 -45 -41 -46 2 0 12 -3 23 -5 30 -7 231 -6 279 1 128 19 295
97 421 196 l56 44 -5 80 c-7 93 -15 103 -108 131 l-57 18 59 19 60 20 -27 48
c-15 26 -38 54 -50 60 -21 11 -23 19 -23 91 0 86 -5 81 78 80 23 0 42 3 42 7
0 4 -30 6 -67 6 -94 -2 -96 -1 -88 52 8 52 -5 73 -44 73 -25 1 -24 2 12 24 39
24 155 51 197 45 19 -3 25 -10 26 -31 1 -32 -18 -37 -43 -13 -15 16 -30 14
-85 -7 -23 -9 -25 -12 -15 -29 10 -17 21 -19 76 -17 l65 3 3 -44 c2 -32 -2
-48 -15 -58 -13 -10 -14 -13 -2 -11 10 2 15 -6 17 -27 0 -16 2 -38 2 -48 1
-10 7 -17 14 -16 6 1 27 1 45 0 30 -1 32 -3 32 -36 0 -24 -6 -37 -20 -45 -25
-14 -26 -47 -1 -102 11 -24 25 -58 31 -75 7 -18 16 -31 20 -28 10 6 51 92 83
175 44 113 57 303 32 473 -9 63 -99 287 -116 287 -4 0 -12 -13 -19 -29 -6 -16
-20 -37 -31 -47 -10 -9 -19 -22 -19 -28 0 -5 -11 -27 -25 -48 -25 -37 -55 -85
-89 -141 -14 -23 -20 -26 -31 -17 -12 10 -12 17 2 44 9 17 19 33 22 36 4 3 20
27 36 54 17 27 38 60 47 75 10 14 21 33 24 41 4 8 17 29 29 45 12 17 25 37 30
45 8 13 6 13 -8 1 -9 -7 -32 -39 -49 -70 -39 -66 -47 -79 -72 -117 -40 -60
-75 -116 -78 -126 -2 -6 -20 -1 -43 11 -22 11 -59 30 -82 41 -49 24 -52 39
-20 83 24 35 31 46 65 103 12 22 40 68 62 103 22 34 40 66 40 70 1 3 11 19 25
35 l23 29 -24 20 c-24 19 -24 19 -44 -5 -11 -12 -19 -28 -20 -35 0 -6 -10 -24
-23 -40 -12 -15 -28 -39 -35 -53 -7 -14 -26 -45 -42 -70 -16 -25 -45 -73 -65
-107 -42 -71 -45 -75 -65 -63 -13 8 -12 13 3 37 10 15 24 42 32 59 8 17 21 36
29 44 9 7 16 17 16 23 0 5 11 25 25 43 14 18 25 35 25 38 0 3 23 41 50 83 28
42 50 84 50 92 0 15 -73 -88 -109 -154 -9 -16 -33 -55 -54 -86 -20 -31 -37
-59 -37 -63 0 -4 -11 -22 -25 -40 -14 -18 -25 -38 -25 -44 0 -7 -4 -12 -9 -12
-21 0 -21 22 -2 49 12 16 21 31 21 34 0 3 19 34 43 69 23 35 48 75 56 89 8 13
36 60 63 104 34 55 45 81 36 84 -7 2 -15 7 -18 12 -7 10 -157 78 -184 83 -11
2 -49 11 -82 20 -72 19 -204 25 -289 14z m365 -579 c0 -5 5 -9 11 -9 6 0 45
-21 87 -46 42 -26 96 -58 121 -72 67 -36 67 -37 -9 -34 -41 2 -70 0 -70 -6 0
-5 -13 -15 -29 -22 -21 -8 -37 -28 -55 -65 -14 -29 -30 -56 -35 -60 -16 -9
-13 -25 3 -25 8 0 24 15 35 34 22 34 61 62 43 30 -5 -8 -7 -37 -4 -64 4 -46 2
-49 -17 -45 -18 3 -21 -1 -21 -30 0 -31 -3 -35 -39 -45 -22 -6 -57 -11 -78
-13 l-37 -2 -1 60 c-1 50 4 66 25 95 86 116 103 149 103 197 0 26 -5 49 -12
51 -6 2 -11 9 -11 16 0 8 -9 25 -20 39 -24 30 -25 38 -5 31 8 -4 15 -10 15
-15z m170 -289 c6 -11 7 -26 3 -33 -4 -6 -8 -86 -8 -177 -1 -91 -4 -175 -8
-186 -8 -21 -43 -33 -78 -26 -13 2 -10 9 13 33 29 28 30 32 24 97 -8 100 -9
288 -2 301 11 18 44 13 56 -9z m328 -38 c-3 -32 -6 -36 -30 -37 -18 -1 -28 3
-28 12 0 15 -16 17 -25 3 -10 -17 -25 -1 -25 27 0 22 3 24 25 19 14 -4 25 -2
25 2 0 5 14 9 31 10 29 1 30 -1 27 -36z m-608 -87 l0 -85 -45 0 c-45 0 -45 0
-45 35 0 33 -2 35 -33 35 -23 0 -34 5 -34 15 0 10 11 15 34 15 31 0 33 2 33
35 0 35 0 35 45 35 l45 0 0 -85z m567 13 c3 6 18 12 34 12 27 0 29 -3 29 -35
0 -31 -3 -35 -26 -35 -14 0 -33 7 -42 16 -10 11 -17 13 -20 5 -2 -6 -12 -11
-23 -11 -14 0 -19 7 -19 29 0 29 1 29 32 18 24 -9 32 -9 35 1z m-357 -23 c0
-8 -4 -15 -9 -15 -13 0 -22 16 -14 24 11 11 23 6 23 -9z m100 0 c0 -8 -4 -15
-10 -15 -5 0 -10 7 -10 15 0 8 5 15 10 15 6 0 10 -7 10 -15z m330 -97 c0 -39
-2 -43 -25 -44 -23 -2 -25 1 -25 42 0 40 2 44 25 44 23 0 25 -4 25 -42z m-325
2 c-3 -5 -10 -10 -16 -10 -5 0 -9 5 -9 10 0 6 7 10 16 10 8 0 12 -4 9 -10z"/>
<path d="M26 952 c-7 -12 1 -121 14 -189 l13 -63 161 0 161 0 -52 48 c-29 26
-64 56 -78 67 -14 11 -33 27 -43 36 -9 8 -33 26 -52 39 -19 13 -37 27 -40 30
-12 13 -80 39 -84 32z"/>
<path d="M820 584 c0 -3 16 -21 35 -41 19 -19 37 -44 40 -54 7 -20 13 -22 99
-39 67 -14 82 -6 67 32 -13 35 -56 66 -100 74 -20 3 -60 12 -88 19 -29 7 -53
11 -53 9z"/>
<path d="M440 490 c-15 -27 -42 -37 -126 -45 -84 -8 -127 -15 -133 -21 -13
-12 18 -18 99 -18 80 0 90 -2 90 -17 0 -19 -51 -39 -97 -39 -13 0 -23 -6 -23
-13 0 -21 32 -33 85 -33 l49 1 14 49 c8 27 27 74 43 103 16 29 24 53 19 53 -5
0 -14 -9 -20 -20z"/>
<path d="M611 344 c-48 -56 -51 -128 -5 -177 33 -36 68 -43 108 -24 34 16 66
68 66 105 0 31 -19 74 -42 100 -31 32 -97 31 -127 -4z"/>
</g>
</svg>
